<mxfile host="Electron" modified="2023-11-11T18:57:01.543Z" agent="Mozilla/5.0 (Macintosh; Intel Mac OS X 10_15_7) AppleWebKit/537.36 (KHTML, like Gecko) draw.io/22.0.3 Chrome/114.0.5735.289 Electron/25.8.4 Safari/537.36" etag="j_sySIjxL4XZ7P4itCBn" version="22.0.3" type="device">
  <diagram name="Page-1" id="KggYh1VvY2C4FL8f6Laj">
    <mxGraphModel dx="928" dy="768" grid="1" gridSize="10" guides="1" tooltips="1" connect="1" arrows="1" fold="1" page="1" pageScale="1" pageWidth="850" pageHeight="1100" math="0" shadow="0">
      <root>
        <mxCell id="0" />
        <mxCell id="1" parent="0" />
        <mxCell id="KRby9du6B3SCYmab8eCf-7" value="" style="edgeStyle=orthogonalEdgeStyle;rounded=0;orthogonalLoop=1;jettySize=auto;html=1;" edge="1" parent="1" source="KRby9du6B3SCYmab8eCf-1" target="KRby9du6B3SCYmab8eCf-6">
          <mxGeometry relative="1" as="geometry" />
        </mxCell>
        <mxCell id="KRby9du6B3SCYmab8eCf-41" value="2" style="edgeLabel;html=1;align=center;verticalAlign=middle;resizable=0;points=[];" vertex="1" connectable="0" parent="KRby9du6B3SCYmab8eCf-7">
          <mxGeometry x="-0.5857" relative="1" as="geometry">
            <mxPoint as="offset" />
          </mxGeometry>
        </mxCell>
        <mxCell id="KRby9du6B3SCYmab8eCf-42" value="1" style="edgeLabel;html=1;align=center;verticalAlign=middle;resizable=0;points=[];" vertex="1" connectable="0" parent="KRby9du6B3SCYmab8eCf-7">
          <mxGeometry x="0.7714" relative="1" as="geometry">
            <mxPoint as="offset" />
          </mxGeometry>
        </mxCell>
        <mxCell id="KRby9du6B3SCYmab8eCf-9" value="" style="edgeStyle=orthogonalEdgeStyle;rounded=0;orthogonalLoop=1;jettySize=auto;html=1;" edge="1" parent="1" source="KRby9du6B3SCYmab8eCf-1" target="KRby9du6B3SCYmab8eCf-8">
          <mxGeometry relative="1" as="geometry" />
        </mxCell>
        <mxCell id="KRby9du6B3SCYmab8eCf-45" value="1" style="edgeLabel;html=1;align=center;verticalAlign=middle;resizable=0;points=[];" vertex="1" connectable="0" parent="KRby9du6B3SCYmab8eCf-9">
          <mxGeometry x="-0.7208" y="3" relative="1" as="geometry">
            <mxPoint x="7" as="offset" />
          </mxGeometry>
        </mxCell>
        <mxCell id="KRby9du6B3SCYmab8eCf-46" value="*" style="edgeLabel;html=1;align=center;verticalAlign=middle;resizable=0;points=[];" vertex="1" connectable="0" parent="KRby9du6B3SCYmab8eCf-9">
          <mxGeometry x="0.6333" y="3" relative="1" as="geometry">
            <mxPoint x="7" y="5" as="offset" />
          </mxGeometry>
        </mxCell>
        <mxCell id="KRby9du6B3SCYmab8eCf-38" style="edgeStyle=orthogonalEdgeStyle;rounded=0;orthogonalLoop=1;jettySize=auto;html=1;entryX=0.5;entryY=1;entryDx=0;entryDy=0;" edge="1" parent="1" source="KRby9du6B3SCYmab8eCf-1" target="KRby9du6B3SCYmab8eCf-20">
          <mxGeometry relative="1" as="geometry" />
        </mxCell>
        <mxCell id="KRby9du6B3SCYmab8eCf-43" value="*" style="edgeLabel;html=1;align=center;verticalAlign=middle;resizable=0;points=[];" vertex="1" connectable="0" parent="KRby9du6B3SCYmab8eCf-38">
          <mxGeometry x="0.7111" relative="1" as="geometry">
            <mxPoint x="10" as="offset" />
          </mxGeometry>
        </mxCell>
        <mxCell id="KRby9du6B3SCYmab8eCf-44" value="1" style="edgeLabel;html=1;align=center;verticalAlign=middle;resizable=0;points=[];" vertex="1" connectable="0" parent="KRby9du6B3SCYmab8eCf-38">
          <mxGeometry x="-0.6778" y="-1" relative="1" as="geometry">
            <mxPoint x="9" as="offset" />
          </mxGeometry>
        </mxCell>
        <mxCell id="KRby9du6B3SCYmab8eCf-1" value="Users" style="whiteSpace=wrap;html=1;align=center;" vertex="1" parent="1">
          <mxGeometry x="290" y="300" width="100" height="40" as="geometry" />
        </mxCell>
        <mxCell id="KRby9du6B3SCYmab8eCf-26" style="edgeStyle=orthogonalEdgeStyle;rounded=0;orthogonalLoop=1;jettySize=auto;html=1;" edge="1" parent="1" source="KRby9du6B3SCYmab8eCf-6" target="KRby9du6B3SCYmab8eCf-24">
          <mxGeometry relative="1" as="geometry">
            <Array as="points">
              <mxPoint x="510" y="380" />
              <mxPoint x="510" y="380" />
            </Array>
          </mxGeometry>
        </mxCell>
        <mxCell id="KRby9du6B3SCYmab8eCf-34" value="1" style="edgeLabel;html=1;align=center;verticalAlign=middle;resizable=0;points=[];" vertex="1" connectable="0" parent="KRby9du6B3SCYmab8eCf-26">
          <mxGeometry x="-0.8204" y="1" relative="1" as="geometry">
            <mxPoint x="9" as="offset" />
          </mxGeometry>
        </mxCell>
        <mxCell id="KRby9du6B3SCYmab8eCf-35" value="4" style="edgeLabel;html=1;align=center;verticalAlign=middle;resizable=0;points=[];" vertex="1" connectable="0" parent="KRby9du6B3SCYmab8eCf-26">
          <mxGeometry x="0.7444" y="4" relative="1" as="geometry">
            <mxPoint x="6" as="offset" />
          </mxGeometry>
        </mxCell>
        <mxCell id="KRby9du6B3SCYmab8eCf-6" value="Rides" style="whiteSpace=wrap;html=1;align=center;" vertex="1" parent="1">
          <mxGeometry x="460" y="300" width="100" height="40" as="geometry" />
        </mxCell>
        <mxCell id="KRby9du6B3SCYmab8eCf-13" style="edgeStyle=orthogonalEdgeStyle;rounded=0;orthogonalLoop=1;jettySize=auto;html=1;" edge="1" parent="1" source="KRby9du6B3SCYmab8eCf-8" target="KRby9du6B3SCYmab8eCf-10">
          <mxGeometry relative="1" as="geometry" />
        </mxCell>
        <mxCell id="KRby9du6B3SCYmab8eCf-47" value="1" style="edgeLabel;html=1;align=center;verticalAlign=middle;resizable=0;points=[];" vertex="1" connectable="0" parent="KRby9du6B3SCYmab8eCf-13">
          <mxGeometry x="-0.9087" y="-1" relative="1" as="geometry">
            <mxPoint as="offset" />
          </mxGeometry>
        </mxCell>
        <mxCell id="KRby9du6B3SCYmab8eCf-48" value="*" style="edgeLabel;html=1;align=center;verticalAlign=middle;resizable=0;points=[];" vertex="1" connectable="0" parent="KRby9du6B3SCYmab8eCf-13">
          <mxGeometry x="0.8957" y="1" relative="1" as="geometry">
            <mxPoint x="11" as="offset" />
          </mxGeometry>
        </mxCell>
        <mxCell id="KRby9du6B3SCYmab8eCf-8" value="Banking Informations" style="whiteSpace=wrap;html=1;align=center;" vertex="1" parent="1">
          <mxGeometry x="290" y="420" width="100" height="40" as="geometry" />
        </mxCell>
        <mxCell id="KRby9du6B3SCYmab8eCf-12" style="edgeStyle=orthogonalEdgeStyle;rounded=0;orthogonalLoop=1;jettySize=auto;html=1;entryX=0.5;entryY=0;entryDx=0;entryDy=0;" edge="1" parent="1" source="KRby9du6B3SCYmab8eCf-10" target="KRby9du6B3SCYmab8eCf-6">
          <mxGeometry relative="1" as="geometry">
            <Array as="points">
              <mxPoint x="160" y="160" />
              <mxPoint x="510" y="160" />
            </Array>
          </mxGeometry>
        </mxCell>
        <mxCell id="KRby9du6B3SCYmab8eCf-14" value="1" style="edgeLabel;html=1;align=center;verticalAlign=middle;resizable=0;points=[];" vertex="1" connectable="0" parent="KRby9du6B3SCYmab8eCf-12">
          <mxGeometry x="-0.9163" y="-3" relative="1" as="geometry">
            <mxPoint x="7" as="offset" />
          </mxGeometry>
        </mxCell>
        <mxCell id="KRby9du6B3SCYmab8eCf-39" value="1" style="edgeLabel;html=1;align=center;verticalAlign=middle;resizable=0;points=[];" vertex="1" connectable="0" parent="KRby9du6B3SCYmab8eCf-12">
          <mxGeometry x="0.9323" y="-1" relative="1" as="geometry">
            <mxPoint x="-9" as="offset" />
          </mxGeometry>
        </mxCell>
        <mxCell id="KRby9du6B3SCYmab8eCf-10" value="Payments" style="whiteSpace=wrap;html=1;align=center;" vertex="1" parent="1">
          <mxGeometry x="110" y="300" width="100" height="40" as="geometry" />
        </mxCell>
        <mxCell id="KRby9du6B3SCYmab8eCf-20" value="Receipts" style="whiteSpace=wrap;html=1;align=center;" vertex="1" parent="1">
          <mxGeometry x="290" y="200" width="100" height="40" as="geometry" />
        </mxCell>
        <mxCell id="KRby9du6B3SCYmab8eCf-24" value="Locations" style="whiteSpace=wrap;html=1;align=center;" vertex="1" parent="1">
          <mxGeometry x="460" y="420" width="100" height="40" as="geometry" />
        </mxCell>
        <mxCell id="KRby9du6B3SCYmab8eCf-37" value="Keep in mind that we will have :&lt;br&gt;- Start Location&lt;br&gt;&lt;div style=&quot;&quot;&gt;&lt;span style=&quot;background-color: initial;&quot;&gt;- End Location&lt;/span&gt;&lt;/div&gt;&lt;div style=&quot;&quot;&gt;&lt;span style=&quot;background-color: initial;&quot;&gt;- Driver Location&lt;/span&gt;&lt;/div&gt;&lt;div style=&quot;&quot;&gt;&lt;span style=&quot;background-color: initial;&quot;&gt;- Passenger Location&lt;/span&gt;&lt;/div&gt;" style="text;html=1;strokeColor=none;fillColor=none;align=left;verticalAlign=middle;whiteSpace=wrap;rounded=0;" vertex="1" parent="1">
          <mxGeometry x="490" y="470" width="180" height="90" as="geometry" />
        </mxCell>
        <mxCell id="KRby9du6B3SCYmab8eCf-40" value="Keep in mind that we will have :&lt;br&gt;-Routing Number to pay&lt;br&gt;-Payment configuration" style="text;html=1;strokeColor=none;fillColor=none;align=left;verticalAlign=middle;whiteSpace=wrap;rounded=0;" vertex="1" parent="1">
          <mxGeometry x="250" y="460" width="180" height="90" as="geometry" />
        </mxCell>
      </root>
    </mxGraphModel>
  </diagram>
</mxfile>
